{"title":"2010.05.29-F1.07.Turkey.Qualifying.BBC1_UK [TDMK1]","uid":5598528,"size":1006559304,"categoryP":"video","categoryS":"tv_shows","magnet":"?xt=urn:btih:317a5875f7c23d4cda204f2a512dc61a0b5f6cf3&amp;dn=2010.05.29-F1.07.Turkey.Qualifying.BBC1_UK+%5BTDMK1%5D&amp;tr=udp%3A%2F%2Ftracker.openbittorrent.com%3A80&amp;tr=udp%3A%2F%2Fopen.demonii.com%3A1337&amp;tr=udp%3A%2F%2Ftracker.coppersurfer.tk%3A6969&amp;tr=udp%3A%2F%2Fexodus.desync.com%3A6969","seeders":0,"leechers":1,"uploader":"tdmk1","files":-1,"time":1275158061,"description":"2010.05.29-F1.07.Turkey.Qualifying.BBC1_UK-TDMK1.m4v\n\nJake Humphrey is joined by Eddie Jordan and David Coulthard for live coverage of the session at Istanbul Park, as the drivers contest grid positions for the seventh race of the season. Jenson Button recorded his sixth victory of the campaign when taking the chequered flag here in 2009, triumphing ahead of Mark Webber after starting second on the grid behind eventual third-place finisher Sebastian Vettel. Commentary by Jonathan Legard and Martin Brundle.\n\nNow encoded as 'MP4 All Play'... As a departure from the DivX files which I have uploaded in the past, I've made the decision to get with the 21st century &amp; start encoding with the following specs this year;\n\nMP4 - 640x352 - 800Kb/s H264 Video - 44.1KHz/128Kbps Stereo AAC Audio\n\nMy belief is this is the best all round setup, and hopefully you will agree!\n\nThis video will play on a computer with VLC, XBMC, XBox360, PS3, all iPhones - enjoy the show... :)\n\nGeneral\nComplete name                    : 2010.05.29-F1.07.Turkey.Qualifying.BBC1_UK-TDMK1.m4v\nFormat                           : MPEG-4\nFormat profile                   : Base Media / Version 2\nCodec ID                         : mp42\nFile size                        : 960 MiB\nDuration                         : 2h 24mn\nOverall bit rate                 : 932 Kbps\nEncoded date                     : UTC 2010-05-29 12:59:10\nTagged date                      : UTC 2010-05-29 15:28:05\nWriting application              : HandBrake 0.9.4 2009112300\n\nVideo\nID                               : 1\nFormat                           : AVC\nFormat/Info                      : Advanced Video Codec\nFormat profile                   : &lt;a class=&quot;__cf_email__&quot; href=&quot;/cdn-cgi/l/email-protection&quot; data-cfemail=&quot;85c8e4ecebc5c9b6abb5&quot;&gt;[email&amp;#160;protected]&lt;/a&gt;&lt;script cf-hash='f9e31' type=&quot;text/javascript&quot;&gt;\n/* &lt;![CDATA[ */!function(){try{var t=&quot;currentScript&quot;in document?document.currentScript:function(){for(var t=document.getElementsByTagName(&quot;script&quot;),e=t.length;e--;)if(t[e].getAttribute(&quot;cf-hash&quot;))return t[e]}();if(t&amp;&amp;t.previousSibling){var e,r,n,i,c=t.previousSibling,a=c.getAttribute(&quot;data-cfemail&quot;);if(a){for(e=&quot;&quot;,r=parseInt(a.substr(0,2),16),n=2;a.length-n;n+=2)i=parseInt(a.substr(n,2),16)^r,e+=String.fromCharCode(i);e=document.createTextNode(e),c.parentNode.replaceChild(e,c)}}}catch(u){}}();/* ]]&gt; */&lt;/script&gt;\nFormat settings, CABAC           : Yes\nFormat settings, ReFrames        : 2 frames\nCodec ID                         : avc1\nCodec ID/Info                    : Advanced Video Coding\nDuration                         : 2h 24mn\nBit rate mode                    : Variable\nBit rate                         : 800 Kbps\nWidth                            : 640 pixels\nHeight                           : 352 pixels\nDisplay aspect ratio             : 16:9\nFrame rate mode                  : Variable\nFrame rate                       : 25.000 fps\nMinimum frame rate               : 12.498 fps\nMaximum frame rate               : 25.000 fps\nResolution                       : 8 bits\nColorimetry                      : 4:2:0\nScan type                        : Progressive\nBits/(Pixel*Frame)               : 0.142\nStream size                      : 824 MiB (86%)\nWriting library                  : x264 core 79\nEncoding settings                : cabac=1 / ref=2 / deblock=1:0:0 / analyse=0x1:0x111 / me=hex / subme=6 / psy=1 / psy_rd=1.0:0.0 / mixed_ref=0 / me_range=16 / chroma_me=1 / trellis=0 / 8x8dct=0 / cqm=0 / deadzone=21,11 / chroma_qp_offset=-2 / threads=6 / nr=0 / decimate=1 / mbaff=0 / constrained_intra=0 / bframes=2 / b_pyramid=0 / b_adapt=1 / b_bias=0 / direct=1 / wpredb=0 / wpredp=2 / keyint=250 / keyint_min=25 / scenecut=40 / rc_lookahead=40 / rc=abr / mbtree=1 / bitrate=800 / ratetol=1.0 / qcomp=0.60 / qpmin=10 / qpmax=51 / qpstep=4 / ip_ratio=1.40 / aq=1:1.00\nEncoded date                     : UTC 2010-05-29 12:59:10\nTagged date                      : UTC 2010-05-29 15:28:05\nColor primaries                  : BT.601-6 525, BT.1358 525, BT.1700 NTSC, SMPTE 170M\nTransfer characteristics         : BT.709-5, BT.1361\nMatrix coefficients              : BT.601-6 525, BT.1358 525, BT.1700 NTSC, SMPTE 170M\n\nAudio\nID                               : 2\nFormat                           : AAC\nFormat/Info                      : Advanced Audio Codec\nFormat version                   : Version 4\nFormat profile                   : LC\nFormat settings, SBR             : No\nCodec ID                         : 40\nDuration                         : 2h 24mn\nBit rate mode                    : Variable\nBit rate                         : 128 Kbps\nMaximum bit rate                 : 168 Kbps\nChannel(s)                       : 2 channels\nChannel positions                : Front: L R\nSampling rate                    : 44.1 KHz\nStream size                      : 132 MiB (14%)\nLanguage                         : English\nEncoded date                     : UTC 2010-05-29 12:59:10\nTagged date                      : UTC 2010-05-29 15:28:03\n\n","torrent":{"xt":"urn:btih:317a5875f7c23d4cda204f2a512dc61a0b5f6cf3","amp;dn":"2010.05.29-F1.07.Turkey.Qualifying.BBC1_UK+%5BTDMK1%5D","amp;tr":["udp%3A%2F%2Ftracker.openbittorrent.com%3A80","udp%3A%2F%2Fopen.demonii.com%3A1337","udp%3A%2F%2Ftracker.coppersurfer.tk%3A6969","udp%3A%2F%2Fexodus.desync.com%3A6969"],"infoHash":"317a5875f7c23d4cda204f2a512dc61a0b5f6cf3","infoHashBuffer":{"type":"Buffer","data":[49,122,88,117,247,194,61,76,218,32,79,42,81,45,198,26,11,95,108,243]},"announce":[],"urlList":[]}}